<?xml version="1.0" encoding="utf-8"?>
<!-- Generator: Adobe Illustrator 22.0.1, SVG Export Plug-In . SVG Version: 6.00 Build 0)  -->
<svg version="1.1" id="Layer_1" xmlns="http://www.w3.org/2000/svg" xmlns:xlink="http://www.w3.org/1999/xlink" x="0px" y="0px"
	 viewBox="0 0 25 22" style="enable-background:new 0 0 25 22;" xml:space="preserve">
<style type="text/css">
	.st0{fill:#E98724;}
</style>
<g>
	<path class="st0" d="M15.2,18.5c0.2,0.7,0.4,1.4,0.6,2c0.2,0.5,0,0.4,0.6,0.5c0.4,0,0.7,0,1.1,0c0,0.3,0,0.7,0,1c-3.3,0-6.6,0-10,0
		c0-0.3,0-0.6,0-1c0.5,0,0.9,0,1.3,0c0.2,0,0.3,0,0.3-0.2c0.2-0.7,0.4-1.5,0.6-2.3c-0.1,0-0.3,0-0.4,0c-2.1,0-4.2,0-6.4,0
		c-1.3,0-2.2-0.7-2.5-1.9c-0.1-0.2-0.1-0.5-0.1-0.7c0-4.4,0-8.9,0-13.3C0.5,1.1,1.6,0,3.1,0c6.3,0,12.5,0,18.8,0
		c1.5,0,2.6,1.1,2.6,2.6c0,4.4,0,8.9,0,13.3c0,1.5-1.1,2.6-2.6,2.6c-2.1,0-4.2,0-6.3,0C15.4,18.5,15.3,18.5,15.2,18.5z M23.5,14
		c0-0.1,0-0.2,0-0.3c0-3.7,0-7.3,0-11c0-1.1-0.6-1.7-1.7-1.7C15.6,1,9.4,1,3.2,1C2.1,1,1.5,1.6,1.5,2.7c0,3.7,0,7.3,0,11
		c0,0.1,0,0.2,0,0.3C8.8,14,16.1,14,23.5,14z M23.5,15c-7.3,0-14.7,0-22,0c0,0.4,0,0.9,0,1.3c0,0.4,0.3,0.8,0.7,1
		c0.3,0.1,0.6,0.2,1,0.2c6.2,0,12.4,0,18.6,0c0.1,0,0.2,0,0.2,0c0.8-0.1,1.3-0.6,1.4-1.3C23.5,15.8,23.5,15.4,23.5,15z M14.8,21
		c-0.2-0.8-0.4-1.6-0.7-2.4c0-0.1-0.1-0.1-0.2-0.1c-1,0-1.9,0-2.9,0c-0.1,0-0.2,0.1-0.2,0.2c-0.1,0.3-0.2,0.5-0.2,0.8
		c-0.1,0.5-0.3,1-0.4,1.5C11.7,21,13.3,21,14.8,21z"/>
	<path class="st0" d="M9.2,5.1c0.2,0.3,0.4,0.5,0.6,0.8C9,6.6,8.1,7.3,7.3,8C8.1,8.7,9,9.4,9.8,10.1c-0.2,0.3-0.4,0.5-0.6,0.8
		c-0.4-0.4-0.9-0.7-1.3-1.1C7.3,9.4,6.8,8.9,6.2,8.4C5.9,8.2,5.9,7.9,6.2,7.6C7.2,6.8,8.2,6,9.2,5.1z"/>
	<path class="st0" d="M17.7,8c-0.9-0.7-1.7-1.4-2.5-2.1c0.2-0.3,0.4-0.5,0.6-0.8c0.2,0.1,0.3,0.3,0.5,0.4c0.8,0.7,1.6,1.3,2.4,2
		c0.4,0.3,0.4,0.6,0,0.9c-0.9,0.8-1.8,1.5-2.7,2.3c-0.1,0-0.1,0.1-0.2,0.1c-0.2-0.3-0.4-0.5-0.6-0.8C16,9.4,16.9,8.7,17.7,8z"/>
	<path class="st0" d="M12,11.7c-0.3-0.1-0.6-0.2-1-0.3c0.7-2.3,1.3-4.7,2-7c0.3,0.1,0.6,0.2,1,0.3C13.3,7,12.6,9.3,12,11.7z"/>
</g>
</svg>
