<?xml version="1.0" encoding="utf-8"?>
<!-- Generator: Adobe Illustrator 22.0.1, SVG Export Plug-In . SVG Version: 6.00 Build 0)  -->
<svg version="1.1" id="Layer_1" xmlns="http://www.w3.org/2000/svg" xmlns:xlink="http://www.w3.org/1999/xlink" x="0px" y="0px"
	 viewBox="0 0 25 22" style="enable-background:new 0 0 25 22;" xml:space="preserve">
<style type="text/css">
	.st0{fill:#3988C8;}
</style>
<g>
	<path class="st0" d="M13.1,8.2c-2.8,0-4.9-0.3-6.8-1.5C5.8,6.4,5.3,6,4.9,5.6C4.1,4.7,4.2,3.4,5,2.5c1-1.2,2.4-1.7,3.8-2.1
		c3.2-0.7,6.3-0.7,9.3,0.7C18.8,1.5,19.4,2,20,2.5c0.9,0.9,0.9,2.1,0.1,3.1c-0.9,1-2,1.5-3.3,1.9C15.4,8,14,8.2,13.1,8.2z"/>
	<path class="st0" d="M4.4,15.1c1.3,1.8,3.1,2.5,5,2.9c2.8,0.6,5.6,0.4,8.3-0.6c1.2-0.5,1.7-0.8,2.9-2.2c0,1,0.1,2,0,3
		c-0.1,0.8-0.6,1.3-1.2,1.8c-1.2,1-2.7,1.4-4.2,1.7c-2.4,0.4-4.8,0.3-7.2-0.5c-1.2-0.4-2.4-0.9-3.2-2.1c-0.2-0.4-0.4-0.8-0.5-1.3
		C4.3,17.1,4.4,16.1,4.4,15.1z"/>
	<path class="st0" d="M4.4,5.6c1.4,1.9,3.3,2.6,5.3,3c2.5,0.4,5,0.3,7.4-0.4c1.5-0.5,2.5-1.2,3.5-2.4c0,1.1,0.1,2.1,0,3.2
		c-0.1,1-1,1.6-1.8,2.1c-1.3,0.7-2.6,1.1-4.1,1.3c-2.2,0.3-4.4,0.1-6.5-0.5c-1.2-0.4-2.3-0.9-3.1-1.9C4.6,9.5,4.4,9,4.4,8.4
		C4.4,7.5,4.4,6.6,4.4,5.6z"/>
	<path class="st0" d="M4.4,10.5c1.2,1.5,2.7,2.2,4.5,2.6c3.1,0.7,6.2,0.6,9.1-0.6c1.1-0.4,2-1.1,2.7-2c-0.1,1.4,0.4,2.8-0.5,4.1
		c-0.7,0.9-1.7,1.5-2.7,1.9c-2.2,0.8-4.4,0.9-6.7,0.7c-1.6-0.2-3.1-0.5-4.5-1.4c-0.8-0.5-1.6-1.1-1.8-2.2c-0.1-0.5-0.1-1.1-0.1-1.7
		C4.3,11.5,4.4,11,4.4,10.5z"/>
</g>
</svg>
