<?xml version="1.0" encoding="utf-8"?>
<!-- Generator: Adobe Illustrator 22.0.1, SVG Export Plug-In . SVG Version: 6.00 Build 0)  -->
<svg version="1.1" id="Layer_1" xmlns="http://www.w3.org/2000/svg" xmlns:xlink="http://www.w3.org/1999/xlink" x="0px" y="0px"
	 viewBox="0 0 25 22" style="enable-background:new 0 0 25 22;" xml:space="preserve">
<style type="text/css">
	.st0{fill:#2F8741;}
</style>
<g>
	<path class="st0" d="M19.4,2.4c0,5.7,0,11.5,0,17.2c0,0.1-0.1,0.1-0.1,0.2c-0.2,1.4-1.1,2.2-2.6,2.2c-2.9,0-5.8,0-8.7,0
		c-0.7,0-1.2-0.3-1.7-0.7c-0.5-0.4-0.6-1-0.8-1.6c0-5.8,0-11.6,0-17.4c0-0.1,0.1-0.1,0.1-0.2C5.9,0.8,6.8,0,8.2,0c2.9,0,5.8,0,8.8,0
		c0.6,0,1.2,0.2,1.6,0.7C19.1,1.1,19.2,1.8,19.4,2.4z M7.1,3.9c0,4.3,0,8.5,0,12.7c3.6,0,7.2,0,10.7,0c0-4.2,0-8.5,0-12.7
		C14.3,3.9,10.7,3.9,7.1,3.9z M17.9,18.1c-3.6,0-7.1,0-10.7,0c0,0.5,0,1,0,1.5c0,0.6,0.4,0.9,1,0.9c2.9,0,5.9,0,8.8,0
		c0.5,0,0.9-0.3,0.9-0.7C17.9,19.3,17.9,18.7,17.9,18.1z M7.2,2.4c3.6,0,7.1,0,10.7,0c0-0.6-0.3-1-1-1c-1,0-1.9,0-2.9,0
		c-1.9,0-3.9,0-5.8,0C7.5,1.4,7.2,1.8,7.2,2.4z"/>
	<path class="st0" d="M16.7,10.3c0,0.6,0,1.2,0,1.9c0,0.4-0.2,0.6-0.5,0.8c-1.1,0.6-2.1,1.2-3.1,1.8c-0.4,0.2-0.7,0.2-1.1,0
		c-1-0.6-2.1-1.2-3.1-1.8c-0.3-0.2-0.5-0.4-0.5-0.8c0-1.2,0-2.5,0-3.7c0-0.3,0.1-0.6,0.5-0.8C9.9,7,10.9,6.4,12,5.8
		c0.4-0.2,0.7-0.2,1,0c1,0.6,2.1,1.2,3.1,1.8c0.4,0.2,0.6,0.5,0.6,1C16.6,9.1,16.7,9.7,16.7,10.3C16.7,10.3,16.7,10.3,16.7,10.3z
		 M14.5,8.3c-0.6-0.4-1.2-0.7-1.8-1c-0.1,0-0.2-0.1-0.3,0c-0.6,0.3-1.2,0.7-1.8,1c0.6,0.4,1.2,0.7,1.8,1c0.1,0,0.2,0.1,0.3,0
		C13.2,9,13.8,8.7,14.5,8.3z M11.8,12.9c0-0.7,0-1.4,0-2.1c0-0.1-0.1-0.2-0.1-0.2c-0.6-0.3-1.2-0.7-1.8-1c0,0.7,0,1.4,0,2.1
		c0,0.1,0,0.2,0.1,0.2C10.5,12.2,11.1,12.6,11.8,12.9z M13.2,12.9c0.6-0.4,1.2-0.7,1.8-1c0.1,0,0.1-0.2,0.1-0.3c0-0.7,0-1.3,0-2.1
		c-0.7,0.4-1.2,0.7-1.8,1.1c-0.1,0-0.1,0.2-0.1,0.2C13.2,11.5,13.2,12.2,13.2,12.9z"/>
	<path class="st0" d="M11.8,19.3c0-0.4,0.3-0.7,0.8-0.7c0.4,0,0.7,0.3,0.7,0.7c0,0.4-0.3,0.7-0.7,0.7C12.1,20,11.8,19.7,11.8,19.3z"
		/>
</g>
</svg>
