
<?xml version="1.0" encoding="utf-8"?>
<!-- Generator: Adobe Illustrator 26.5.0, SVG Export Plug-In . SVG Version: 6.00 Build 0)  -->
<svg version="1.1" id="Layer_1" xmlns="http://www.w3.org/2000/svg" xmlns:xlink="http://www.w3.org/1999/xlink" x="0px" y="0px"
	 viewBox="0 0 25 22" style="enable-background:new 0 0 25 22;" xml:space="preserve">
<style type="text/css">
	.st0{fill:#FFFFFF;}
</style>
<g>
	<path class="st0" d="M15.3,18.5c0.2,0.7,0.4,1.4,0.6,2c0.2,0.5,0,0.4,0.6,0.5c0.4,0,0.7,0,1.1,0c0,0.3,0,0.7,0,1c-3.3,0-6.6,0-10,0
		c0-0.3,0-0.6,0-1c0.5,0,0.9,0,1.3,0c0.2,0,0.3,0,0.3-0.2c0.2-0.7,0.4-1.5,0.6-2.3c-0.1,0-0.3,0-0.4,0c-2.1,0-4.2,0-6.4,0
		c-1.3,0-2.2-0.7-2.5-1.9c-0.1-0.2-0.1-0.5-0.1-0.7c0-4.4,0-8.9,0-13.3C0.6,1.1,1.7,0,3.2,0C9.5,0,15.7,0,22,0
		c1.5,0,2.6,1.1,2.6,2.6c0,4.4,0,8.9,0,13.3c0,1.5-1.1,2.6-2.6,2.6c-2.1,0-4.2,0-6.3,0C15.5,18.5,15.4,18.5,15.3,18.5z M23.6,14
		c0-0.1,0-0.2,0-0.3c0-3.7,0-7.3,0-11C23.6,1.6,23,1,21.9,1C15.7,1,9.5,1,3.3,1C2.2,1,1.6,1.6,1.6,2.7c0,3.7,0,7.3,0,11
		c0,0.1,0,0.2,0,0.3C8.9,14,16.2,14,23.6,14z M23.6,15c-7.3,0-14.7,0-22,0c0,0.4,0,0.9,0,1.3s0.3,0.8,0.7,1c0.3,0.1,0.6,0.2,1,0.2
		c6.2,0,12.4,0,18.6,0c0.1,0,0.2,0,0.2,0c0.8-0.1,1.3-0.6,1.4-1.3C23.6,15.8,23.6,15.4,23.6,15z M14.9,21c-0.2-0.8-0.4-1.6-0.7-2.4
		c0-0.1-0.1-0.1-0.2-0.1c-1,0-1.9,0-2.9,0c-0.1,0-0.2,0.1-0.2,0.2c-0.1,0.3-0.2,0.5-0.2,0.8c-0.1,0.5-0.3,1-0.4,1.5
		C11.8,21,13.4,21,14.9,21z"/>
</g>
<rect x="3.5" y="2.9" class="st0" width="1.3" height="1.3"/>
<rect x="5.5" y="2.9" class="st0" width="1.3" height="1.3"/>
<rect x="7.4" y="2.9" class="st0" width="1.3" height="1.3"/>
<rect x="9.4" y="2.9" class="st0" width="12.6" height="1.3"/>
<rect x="3.5" y="5.6" class="st0" width="18.6" height="1.9"/>
<g>
	<rect x="3.5" y="9.5" class="st0" width="8.7" height="2.8"/>
	<rect x="13.4" y="9.5" class="st0" width="8.7" height="2.8"/>
</g>
</svg>
